<?xml version="1.0" standalone="no"?>
<!DOCTYPE svg PUBLIC "-//W3C//DTD SVG 20010904//EN"
 "http://www.w3.org/TR/2001/REC-SVG-20010904/DTD/svg10.dtd">
<svg version="1.0" xmlns="http://www.w3.org/2000/svg"
 width="640.000000pt" height="640.000000pt" viewBox="0 0 640.000000 640.000000"
 preserveAspectRatio="xMidYMid meet">
 

<g transform="translate(0.000000,640.000000) scale(0.100000,-0.100000)"
fill="#000000" stroke="none">
<path d="M0 3200 l0 -3200 3200 0 3200 0 0 3200 0 3200 -3200 0 -3200 0 0
-3200z m1030 820 l0 -60 -60 0 -60 0 0 60 0 60 60 0 60 0 0 -60z m4461 40 c1
-11 1 -31 1 -45 0 -58 2 -56 -59 -53 l-58 3 -3 58 -3 57 61 0 c53 0 60 -2 61
-20z m-179 -122 c3 -30 6 -33 41 -36 l37 -3 0 -702 0 -702 -37 0 -38 0 -3 -52
-3 -53 -2104 0 -2104 0 -3 53 -3 52 -43 0 -42 0 0 703 0 702 40 0 c39 0 40 1
40 35 l0 35 2109 0 2110 0 3 -32z m-4274 -1565 l-3 -58 -60 0 -60 0 2 45 c1
25 2 51 2 58 1 8 20 12 61 12 l61 0 -3 -57z m4455 5 c3 -29 2 -57 -3 -61 -4
-5 -31 -7 -61 -5 l-54 3 -3 58 -3 57 59 0 59 0 6 -52z"/>
<path d="M1322 3559 c-47 -24 -83 -64 -108 -124 -20 -48 -22 -309 -3 -374 30
-100 119 -157 244 -155 140 2 223 78 228 209 l2 50 -60 0 -60 0 -6 -40 c-10
-77 -41 -105 -115 -105 -93 0 -124 55 -124 218 0 170 25 219 114 229 70 8 112
-27 125 -106 l6 -34 60 1 60 0 -2 51 c-4 85 -50 154 -125 186 -57 23 -182 20
-236 -6z"/>
<path d="M3698 3483 l-3 -98 -67 -3 -68 -3 0 -54 0 -54 68 -3 67 -3 5 -163 c6
-202 -2 -192 157 -192 l114 0 -3 57 -3 57 -52 -3 c-95 -5 -93 -7 -93 130 l0
119 85 0 85 0 0 55 0 55 -85 0 -85 0 0 100 0 100 -60 0 -59 0 -3 -97z"/>
<path d="M2063 3375 c-18 -8 -38 -25 -45 -40 -16 -35 -28 -31 -28 10 l0 35
-100 0 -100 0 0 -55 0 -55 40 0 40 0 0 -126 0 -126 -45 4 -45 3 0 -57 0 -58
160 0 160 0 0 58 0 57 -52 0 -53 0 -3 50 c-5 78 7 150 29 174 41 44 139 17
139 -39 0 -18 7 -20 60 -20 l60 0 0 49 c0 112 -112 182 -217 136z"/>
<path d="M3165 3376 c-16 -7 -39 -23 -49 -35 -26 -29 -36 -26 -36 9 l0 30 -60
0 -60 0 0 -330 0 -330 60 0 60 0 0 130 c0 127 7 153 30 110 18 -33 70 -53 135
-53 128 0 205 89 205 236 0 77 -15 127 -53 173 -55 66 -158 93 -232 60z m131
-140 c29 -29 34 -41 34 -82 0 -86 -45 -134 -126 -134 -73 0 -124 51 -124 125
0 80 46 125 128 125 48 0 58 -4 88 -34z"/>
<path d="M4291 3378 c-83 -23 -144 -90 -161 -175 -20 -94 7 -182 74 -240 44
-39 96 -57 166 -57 102 0 179 45 222 128 29 57 29 165 0 222 -54 106 -180 157
-301 122z m151 -123 c50 -20 69 -132 31 -184 -29 -39 -62 -52 -116 -48 -57 5
-92 33 -109 89 -13 43 1 106 27 128 41 34 106 40 167 15z"/>
<path d="M4944 3376 c-17 -7 -40 -25 -51 -40 -27 -34 -33 -33 -33 9 l0 35 -60
0 -60 0 0 -235 0 -235 60 0 60 0 0 145 c0 192 16 225 108 225 33 0 45 -6 66
-31 26 -30 26 -33 26 -185 l0 -154 60 0 60 0 0 173 c0 159 -2 176 -22 217 -13
24 -35 53 -50 64 -35 25 -122 31 -164 12z"/>
<path d="M2400 3208 c0 -148 3 -179 19 -215 44 -96 182 -122 257 -47 18 19 36
34 39 34 11 0 5 -128 -7 -137 -7 -6 -60 -10 -118 -11 l-105 -1 -3 -55 -3 -56
156 0 c152 0 156 1 180 25 l25 24 0 306 0 305 -60 0 -60 0 0 -127 c0 -71 -5
-145 -10 -165 -22 -78 -106 -103 -161 -49 l-29 29 0 156 0 156 -60 0 -60 0 0
-172z"/>
</g>
</svg>
